<mxfile host="app.diagrams.net" agent="Mozilla/5.0 (Windows NT 10.0; Win64; x64) AppleWebKit/537.36 (KHTML, like Gecko) Chrome/131.0.0.0 Safari/537.36 OPR/116.0.0.0" version="26.0.8">
  <diagram name="Page-1" id="jmIKBk8pGhghQsmtY56m">
    <mxGraphModel dx="2922" dy="1107" grid="1" gridSize="10" guides="1" tooltips="1" connect="1" arrows="1" fold="1" page="1" pageScale="1" pageWidth="850" pageHeight="1100" math="0" shadow="0">
      <root>
        <mxCell id="0" />
        <mxCell id="1" parent="0" />
        <mxCell id="kP6dBVXoKInHtqesxyQn-1" value="User" style="whiteSpace=wrap;html=1;align=center;" vertex="1" parent="1">
          <mxGeometry x="370" y="550" width="100" height="40" as="geometry" />
        </mxCell>
        <mxCell id="kP6dBVXoKInHtqesxyQn-3" value="First Name" style="ellipse;whiteSpace=wrap;html=1;align=center;" vertex="1" parent="1">
          <mxGeometry x="240" y="470" width="100" height="40" as="geometry" />
        </mxCell>
        <mxCell id="kP6dBVXoKInHtqesxyQn-4" value="Last Name" style="ellipse;whiteSpace=wrap;html=1;align=center;" vertex="1" parent="1">
          <mxGeometry x="360" y="470" width="100" height="40" as="geometry" />
        </mxCell>
        <mxCell id="kP6dBVXoKInHtqesxyQn-5" value="DOB" style="ellipse;whiteSpace=wrap;html=1;align=center;" vertex="1" parent="1">
          <mxGeometry x="600" y="470" width="100" height="40" as="geometry" />
        </mxCell>
        <mxCell id="kP6dBVXoKInHtqesxyQn-7" value="" style="endArrow=none;html=1;rounded=0;entryX=1;entryY=1;entryDx=0;entryDy=0;exitX=0;exitY=0;exitDx=0;exitDy=0;" edge="1" parent="1" source="kP6dBVXoKInHtqesxyQn-1" target="kP6dBVXoKInHtqesxyQn-3">
          <mxGeometry width="50" height="50" relative="1" as="geometry">
            <mxPoint x="370" y="540" as="sourcePoint" />
            <mxPoint x="450" y="540" as="targetPoint" />
          </mxGeometry>
        </mxCell>
        <mxCell id="kP6dBVXoKInHtqesxyQn-8" value="" style="endArrow=none;html=1;rounded=0;entryX=0.5;entryY=1;entryDx=0;entryDy=0;exitX=0.33;exitY=-0.05;exitDx=0;exitDy=0;exitPerimeter=0;" edge="1" parent="1" source="kP6dBVXoKInHtqesxyQn-1" target="kP6dBVXoKInHtqesxyQn-4">
          <mxGeometry width="50" height="50" relative="1" as="geometry">
            <mxPoint x="400" y="590" as="sourcePoint" />
            <mxPoint x="450" y="540" as="targetPoint" />
          </mxGeometry>
        </mxCell>
        <mxCell id="kP6dBVXoKInHtqesxyQn-9" value="" style="endArrow=none;html=1;rounded=0;entryX=0;entryY=1;entryDx=0;entryDy=0;" edge="1" parent="1">
          <mxGeometry width="50" height="50" relative="1" as="geometry">
            <mxPoint x="450" y="550" as="sourcePoint" />
            <mxPoint x="494.64466094067257" y="504.14213562373106" as="targetPoint" />
          </mxGeometry>
        </mxCell>
        <mxCell id="kP6dBVXoKInHtqesxyQn-10" value="" style="endArrow=none;html=1;rounded=0;entryX=0;entryY=1;entryDx=0;entryDy=0;exitX=1;exitY=0;exitDx=0;exitDy=0;" edge="1" parent="1" source="kP6dBVXoKInHtqesxyQn-1" target="kP6dBVXoKInHtqesxyQn-5">
          <mxGeometry width="50" height="50" relative="1" as="geometry">
            <mxPoint x="400" y="590" as="sourcePoint" />
            <mxPoint x="450" y="540" as="targetPoint" />
          </mxGeometry>
        </mxCell>
        <mxCell id="kP6dBVXoKInHtqesxyQn-11" value="uID" style="ellipse;whiteSpace=wrap;html=1;align=center;fontStyle=4;" vertex="1" parent="1">
          <mxGeometry x="460" y="470" width="100" height="40" as="geometry" />
        </mxCell>
        <mxCell id="kP6dBVXoKInHtqesxyQn-12" value="Student" style="whiteSpace=wrap;html=1;align=center;" vertex="1" parent="1">
          <mxGeometry x="40" y="680" width="100" height="40" as="geometry" />
        </mxCell>
        <mxCell id="kP6dBVXoKInHtqesxyQn-13" value="Professor" style="whiteSpace=wrap;html=1;align=center;" vertex="1" parent="1">
          <mxGeometry x="520" y="690" width="100" height="40" as="geometry" />
        </mxCell>
        <mxCell id="kP6dBVXoKInHtqesxyQn-14" value="Administrator" style="whiteSpace=wrap;html=1;align=center;" vertex="1" parent="1">
          <mxGeometry x="720" y="570" width="100" height="40" as="geometry" />
        </mxCell>
        <mxCell id="kP6dBVXoKInHtqesxyQn-15" value="" style="endArrow=none;html=1;rounded=0;exitX=0.5;exitY=0;exitDx=0;exitDy=0;entryX=0;entryY=0.75;entryDx=0;entryDy=0;" edge="1" parent="1" source="kP6dBVXoKInHtqesxyQn-12" target="kP6dBVXoKInHtqesxyQn-1">
          <mxGeometry width="50" height="50" relative="1" as="geometry">
            <mxPoint x="400" y="590" as="sourcePoint" />
            <mxPoint x="450" y="540" as="targetPoint" />
          </mxGeometry>
        </mxCell>
        <mxCell id="kP6dBVXoKInHtqesxyQn-16" value="" style="endArrow=none;html=1;rounded=0;exitX=1;exitY=0;exitDx=0;exitDy=0;entryX=0;entryY=1;entryDx=0;entryDy=0;" edge="1" parent="1" source="kP6dBVXoKInHtqesxyQn-21" target="kP6dBVXoKInHtqesxyQn-1">
          <mxGeometry width="50" height="50" relative="1" as="geometry">
            <mxPoint x="400" y="590" as="sourcePoint" />
            <mxPoint x="450" y="540" as="targetPoint" />
          </mxGeometry>
        </mxCell>
        <mxCell id="kP6dBVXoKInHtqesxyQn-17" value="" style="endArrow=none;html=1;rounded=0;entryX=0.5;entryY=0;entryDx=0;entryDy=0;exitX=0.608;exitY=0.917;exitDx=0;exitDy=0;exitPerimeter=0;" edge="1" parent="1" source="kP6dBVXoKInHtqesxyQn-23" target="kP6dBVXoKInHtqesxyQn-13">
          <mxGeometry width="50" height="50" relative="1" as="geometry">
            <mxPoint x="400" y="590" as="sourcePoint" />
            <mxPoint x="450" y="540" as="targetPoint" />
          </mxGeometry>
        </mxCell>
        <mxCell id="kP6dBVXoKInHtqesxyQn-18" value="" style="endArrow=none;html=1;rounded=0;exitX=0.38;exitY=-0.025;exitDx=0;exitDy=0;exitPerimeter=0;entryX=0.36;entryY=1;entryDx=0;entryDy=0;entryPerimeter=0;" edge="1" parent="1" source="kP6dBVXoKInHtqesxyQn-13" target="kP6dBVXoKInHtqesxyQn-1">
          <mxGeometry width="50" height="50" relative="1" as="geometry">
            <mxPoint x="400" y="590" as="sourcePoint" />
            <mxPoint x="450" y="540" as="targetPoint" />
          </mxGeometry>
        </mxCell>
        <mxCell id="kP6dBVXoKInHtqesxyQn-19" value="" style="endArrow=none;html=1;rounded=0;entryX=0.25;entryY=0;entryDx=0;entryDy=0;exitX=1;exitY=0.5;exitDx=0;exitDy=0;" edge="1" parent="1" source="kP6dBVXoKInHtqesxyQn-1" target="kP6dBVXoKInHtqesxyQn-14">
          <mxGeometry width="50" height="50" relative="1" as="geometry">
            <mxPoint x="400" y="590" as="sourcePoint" />
            <mxPoint x="450" y="540" as="targetPoint" />
          </mxGeometry>
        </mxCell>
        <mxCell id="kP6dBVXoKInHtqesxyQn-20" value="" style="endArrow=none;html=1;rounded=0;entryX=0.36;entryY=-0.025;entryDx=0;entryDy=0;entryPerimeter=0;exitX=1;exitY=0.25;exitDx=0;exitDy=0;" edge="1" parent="1" source="kP6dBVXoKInHtqesxyQn-1" target="kP6dBVXoKInHtqesxyQn-14">
          <mxGeometry width="50" height="50" relative="1" as="geometry">
            <mxPoint x="400" y="590" as="sourcePoint" />
            <mxPoint x="450" y="540" as="targetPoint" />
          </mxGeometry>
        </mxCell>
        <mxCell id="kP6dBVXoKInHtqesxyQn-22" value="" style="endArrow=none;html=1;rounded=0;exitX=0.69;exitY=0.025;exitDx=0;exitDy=0;exitPerimeter=0;entryX=0;entryY=1;entryDx=0;entryDy=0;" edge="1" parent="1" source="kP6dBVXoKInHtqesxyQn-12" target="kP6dBVXoKInHtqesxyQn-21">
          <mxGeometry width="50" height="50" relative="1" as="geometry">
            <mxPoint x="109" y="681" as="sourcePoint" />
            <mxPoint x="370" y="590" as="targetPoint" />
          </mxGeometry>
        </mxCell>
        <mxCell id="kP6dBVXoKInHtqesxyQn-21" value="Is A" style="shape=rhombus;perimeter=rhombusPerimeter;whiteSpace=wrap;html=1;align=center;" vertex="1" parent="1">
          <mxGeometry x="170" y="610" width="120" height="60" as="geometry" />
        </mxCell>
        <mxCell id="kP6dBVXoKInHtqesxyQn-24" value="" style="endArrow=none;html=1;rounded=0;exitX=0.5;exitY=1;exitDx=0;exitDy=0;" edge="1" parent="1" source="kP6dBVXoKInHtqesxyQn-1" target="kP6dBVXoKInHtqesxyQn-23">
          <mxGeometry width="50" height="50" relative="1" as="geometry">
            <mxPoint x="420" y="590" as="sourcePoint" />
            <mxPoint x="425" y="680" as="targetPoint" />
          </mxGeometry>
        </mxCell>
        <mxCell id="kP6dBVXoKInHtqesxyQn-23" value="Is A" style="shape=rhombus;perimeter=rhombusPerimeter;whiteSpace=wrap;html=1;align=center;" vertex="1" parent="1">
          <mxGeometry x="450" y="598" width="120" height="60" as="geometry" />
        </mxCell>
        <mxCell id="kP6dBVXoKInHtqesxyQn-25" value="Is A" style="shape=rhombus;perimeter=rhombusPerimeter;whiteSpace=wrap;html=1;align=center;" vertex="1" parent="1">
          <mxGeometry x="550" y="535" width="120" height="60" as="geometry" />
        </mxCell>
        <mxCell id="kP6dBVXoKInHtqesxyQn-26" value="1" style="text;html=1;align=center;verticalAlign=middle;resizable=0;points=[];autosize=1;strokeColor=none;fillColor=none;" vertex="1" parent="1">
          <mxGeometry x="560" y="658" width="30" height="30" as="geometry" />
        </mxCell>
        <mxCell id="kP6dBVXoKInHtqesxyQn-27" value="M" style="text;html=1;align=center;verticalAlign=middle;resizable=0;points=[];autosize=1;strokeColor=none;fillColor=none;" vertex="1" parent="1">
          <mxGeometry x="450" y="585" width="30" height="30" as="geometry" />
        </mxCell>
        <mxCell id="kP6dBVXoKInHtqesxyQn-28" value="M" style="text;html=1;align=center;verticalAlign=middle;resizable=0;points=[];autosize=1;strokeColor=none;fillColor=none;" vertex="1" parent="1">
          <mxGeometry x="480" y="565" width="30" height="30" as="geometry" />
        </mxCell>
        <mxCell id="kP6dBVXoKInHtqesxyQn-29" value="1" style="text;html=1;align=center;verticalAlign=middle;resizable=0;points=[];autosize=1;strokeColor=none;fillColor=none;" vertex="1" parent="1">
          <mxGeometry x="690" y="570" width="30" height="30" as="geometry" />
        </mxCell>
        <mxCell id="kP6dBVXoKInHtqesxyQn-30" value="M" style="text;html=1;align=center;verticalAlign=middle;resizable=0;points=[];autosize=1;strokeColor=none;fillColor=none;" vertex="1" parent="1">
          <mxGeometry x="330" y="555" width="30" height="30" as="geometry" />
        </mxCell>
        <mxCell id="kP6dBVXoKInHtqesxyQn-31" value="1" style="text;html=1;align=center;verticalAlign=middle;resizable=0;points=[];autosize=1;strokeColor=none;fillColor=none;" vertex="1" parent="1">
          <mxGeometry x="75" y="648" width="30" height="30" as="geometry" />
        </mxCell>
        <mxCell id="kP6dBVXoKInHtqesxyQn-32" value="Department" style="whiteSpace=wrap;html=1;align=center;" vertex="1" parent="1">
          <mxGeometry x="290" y="790" width="100" height="40" as="geometry" />
        </mxCell>
        <mxCell id="kP6dBVXoKInHtqesxyQn-33" value="Subject Abbreviation" style="ellipse;whiteSpace=wrap;html=1;align=center;fontStyle=4;" vertex="1" parent="1">
          <mxGeometry x="250" y="720" width="100" height="40" as="geometry" />
        </mxCell>
        <mxCell id="kP6dBVXoKInHtqesxyQn-34" value="" style="endArrow=none;html=1;rounded=0;entryX=0.5;entryY=1;entryDx=0;entryDy=0;exitX=0.25;exitY=0;exitDx=0;exitDy=0;" edge="1" parent="1" source="kP6dBVXoKInHtqesxyQn-32" target="kP6dBVXoKInHtqesxyQn-33">
          <mxGeometry width="50" height="50" relative="1" as="geometry">
            <mxPoint x="400" y="890" as="sourcePoint" />
            <mxPoint x="450" y="840" as="targetPoint" />
          </mxGeometry>
        </mxCell>
        <mxCell id="kP6dBVXoKInHtqesxyQn-35" value="Name" style="ellipse;whiteSpace=wrap;html=1;align=center;" vertex="1" parent="1">
          <mxGeometry x="360" y="720" width="100" height="40" as="geometry" />
        </mxCell>
        <mxCell id="kP6dBVXoKInHtqesxyQn-36" value="" style="endArrow=none;html=1;rounded=0;entryX=0.31;entryY=0.925;entryDx=0;entryDy=0;entryPerimeter=0;exitX=0.75;exitY=0;exitDx=0;exitDy=0;" edge="1" parent="1" source="kP6dBVXoKInHtqesxyQn-32" target="kP6dBVXoKInHtqesxyQn-35">
          <mxGeometry width="50" height="50" relative="1" as="geometry">
            <mxPoint x="400" y="890" as="sourcePoint" />
            <mxPoint x="450" y="840" as="targetPoint" />
          </mxGeometry>
        </mxCell>
        <mxCell id="kP6dBVXoKInHtqesxyQn-37" value="Majoring In" style="shape=rhombus;perimeter=rhombusPerimeter;whiteSpace=wrap;html=1;align=center;" vertex="1" parent="1">
          <mxGeometry x="130" y="740" width="120" height="60" as="geometry" />
        </mxCell>
        <mxCell id="kP6dBVXoKInHtqesxyQn-38" value="" style="endArrow=none;html=1;rounded=0;entryX=1;entryY=0.75;entryDx=0;entryDy=0;exitX=0.425;exitY=0.1;exitDx=0;exitDy=0;exitPerimeter=0;" edge="1" parent="1" source="kP6dBVXoKInHtqesxyQn-37" target="kP6dBVXoKInHtqesxyQn-12">
          <mxGeometry width="50" height="50" relative="1" as="geometry">
            <mxPoint x="400" y="890" as="sourcePoint" />
            <mxPoint x="450" y="840" as="targetPoint" />
          </mxGeometry>
        </mxCell>
        <mxCell id="kP6dBVXoKInHtqesxyQn-39" value="" style="endArrow=none;html=1;rounded=0;entryX=1;entryY=1;entryDx=0;entryDy=0;exitX=0.333;exitY=0.167;exitDx=0;exitDy=0;exitPerimeter=0;" edge="1" parent="1" source="kP6dBVXoKInHtqesxyQn-37" target="kP6dBVXoKInHtqesxyQn-12">
          <mxGeometry width="50" height="50" relative="1" as="geometry">
            <mxPoint x="400" y="890" as="sourcePoint" />
            <mxPoint x="450" y="840" as="targetPoint" />
          </mxGeometry>
        </mxCell>
        <mxCell id="kP6dBVXoKInHtqesxyQn-40" value="1" style="text;html=1;align=center;verticalAlign=middle;resizable=0;points=[];autosize=1;strokeColor=none;fillColor=none;" vertex="1" parent="1">
          <mxGeometry x="135" y="688" width="30" height="30" as="geometry" />
        </mxCell>
        <mxCell id="kP6dBVXoKInHtqesxyQn-41" value="M" style="text;html=1;align=center;verticalAlign=middle;resizable=0;points=[];autosize=1;strokeColor=none;fillColor=none;" vertex="1" parent="1">
          <mxGeometry x="265" y="778" width="30" height="30" as="geometry" />
        </mxCell>
        <mxCell id="kP6dBVXoKInHtqesxyQn-43" value="" style="endArrow=none;html=1;rounded=0;entryX=0.692;entryY=0.85;entryDx=0;entryDy=0;entryPerimeter=0;exitX=0;exitY=0.75;exitDx=0;exitDy=0;" edge="1" parent="1" source="kP6dBVXoKInHtqesxyQn-32" target="kP6dBVXoKInHtqesxyQn-37">
          <mxGeometry width="50" height="50" relative="1" as="geometry">
            <mxPoint x="400" y="890" as="sourcePoint" />
            <mxPoint x="450" y="840" as="targetPoint" />
          </mxGeometry>
        </mxCell>
        <mxCell id="kP6dBVXoKInHtqesxyQn-44" value="Working for" style="shape=rhombus;perimeter=rhombusPerimeter;whiteSpace=wrap;html=1;align=center;" vertex="1" parent="1">
          <mxGeometry x="430" y="760" width="120" height="60" as="geometry" />
        </mxCell>
        <mxCell id="kP6dBVXoKInHtqesxyQn-46" value="" style="endArrow=none;html=1;rounded=0;entryX=1;entryY=0.5;entryDx=0;entryDy=0;" edge="1" parent="1" source="kP6dBVXoKInHtqesxyQn-44" target="kP6dBVXoKInHtqesxyQn-32">
          <mxGeometry width="50" height="50" relative="1" as="geometry">
            <mxPoint x="400" y="890" as="sourcePoint" />
            <mxPoint x="450" y="840" as="targetPoint" />
          </mxGeometry>
        </mxCell>
        <mxCell id="kP6dBVXoKInHtqesxyQn-47" value="" style="endArrow=none;html=1;rounded=0;exitX=0.25;exitY=1;exitDx=0;exitDy=0;" edge="1" parent="1" source="kP6dBVXoKInHtqesxyQn-13" target="kP6dBVXoKInHtqesxyQn-44">
          <mxGeometry width="50" height="50" relative="1" as="geometry">
            <mxPoint x="400" y="890" as="sourcePoint" />
            <mxPoint x="450" y="840" as="targetPoint" />
          </mxGeometry>
        </mxCell>
        <mxCell id="kP6dBVXoKInHtqesxyQn-48" value="" style="endArrow=none;html=1;rounded=0;entryX=1;entryY=0;entryDx=0;entryDy=0;exitX=0.34;exitY=1.025;exitDx=0;exitDy=0;exitPerimeter=0;" edge="1" parent="1" source="kP6dBVXoKInHtqesxyQn-13" target="kP6dBVXoKInHtqesxyQn-44">
          <mxGeometry width="50" height="50" relative="1" as="geometry">
            <mxPoint x="400" y="890" as="sourcePoint" />
            <mxPoint x="450" y="840" as="targetPoint" />
          </mxGeometry>
        </mxCell>
        <mxCell id="kP6dBVXoKInHtqesxyQn-49" value="M" style="text;html=1;align=center;verticalAlign=middle;resizable=0;points=[];autosize=1;strokeColor=none;fillColor=none;" vertex="1" parent="1">
          <mxGeometry x="390" y="808" width="30" height="30" as="geometry" />
        </mxCell>
        <mxCell id="kP6dBVXoKInHtqesxyQn-50" value="1" style="text;html=1;align=center;verticalAlign=middle;resizable=0;points=[];autosize=1;strokeColor=none;fillColor=none;" vertex="1" parent="1">
          <mxGeometry x="545" y="728" width="30" height="30" as="geometry" />
        </mxCell>
        <mxCell id="kP6dBVXoKInHtqesxyQn-54" value="" style="endArrow=none;html=1;rounded=0;entryX=0.41;entryY=1.025;entryDx=0;entryDy=0;entryPerimeter=0;exitX=0.5;exitY=0;exitDx=0;exitDy=0;" edge="1" parent="1" target="kP6dBVXoKInHtqesxyQn-32">
          <mxGeometry width="50" height="50" relative="1" as="geometry">
            <mxPoint x="340" y="870" as="sourcePoint" />
            <mxPoint x="450" y="840" as="targetPoint" />
          </mxGeometry>
        </mxCell>
        <mxCell id="kP6dBVXoKInHtqesxyQn-55" value="" style="endArrow=none;html=1;rounded=0;exitX=0.5;exitY=0;exitDx=0;exitDy=0;entryX=0.5;entryY=1;entryDx=0;entryDy=0;" edge="1" parent="1" source="kP6dBVXoKInHtqesxyQn-79">
          <mxGeometry width="50" height="50" relative="1" as="geometry">
            <mxPoint x="345" y="970" as="sourcePoint" />
            <mxPoint x="340" y="930" as="targetPoint" />
          </mxGeometry>
        </mxCell>
        <mxCell id="kP6dBVXoKInHtqesxyQn-56" value="" style="endArrow=none;html=1;rounded=0;entryX=0.4;entryY=0.075;entryDx=0;entryDy=0;entryPerimeter=0;exitX=0.442;exitY=0.983;exitDx=0;exitDy=0;exitPerimeter=0;" edge="1" parent="1" target="kP6dBVXoKInHtqesxyQn-79">
          <mxGeometry width="50" height="50" relative="1" as="geometry">
            <mxPoint x="333.03999999999996" y="928.98" as="sourcePoint" />
            <mxPoint x="336" y="969" as="targetPoint" />
          </mxGeometry>
        </mxCell>
        <mxCell id="kP6dBVXoKInHtqesxyQn-57" value="M" style="text;html=1;align=center;verticalAlign=middle;resizable=0;points=[];autosize=1;strokeColor=none;fillColor=none;" vertex="1" parent="1">
          <mxGeometry x="335" y="828" width="30" height="30" as="geometry" />
        </mxCell>
        <mxCell id="kP6dBVXoKInHtqesxyQn-58" value="1" style="text;html=1;align=center;verticalAlign=middle;resizable=0;points=[];autosize=1;strokeColor=none;fillColor=none;" vertex="1" parent="1">
          <mxGeometry x="350" y="948" width="30" height="30" as="geometry" />
        </mxCell>
        <mxCell id="kP6dBVXoKInHtqesxyQn-59" value="Name" style="ellipse;whiteSpace=wrap;html=1;align=center;" vertex="1" parent="1">
          <mxGeometry x="410" y="1020" width="100" height="40" as="geometry" />
        </mxCell>
        <mxCell id="kP6dBVXoKInHtqesxyQn-61" value="cID" style="ellipse;whiteSpace=wrap;html=1;align=center;fontStyle=4;" vertex="1" parent="1">
          <mxGeometry x="190" y="1020" width="100" height="40" as="geometry" />
        </mxCell>
        <mxCell id="kP6dBVXoKInHtqesxyQn-62" value="" style="endArrow=none;html=1;rounded=0;entryX=0;entryY=1;entryDx=0;entryDy=0;exitX=0.7;exitY=0.075;exitDx=0;exitDy=0;exitPerimeter=0;" edge="1" parent="1" source="kP6dBVXoKInHtqesxyQn-61">
          <mxGeometry width="50" height="50" relative="1" as="geometry">
            <mxPoint x="400" y="1190" as="sourcePoint" />
            <mxPoint x="295" y="1010" as="targetPoint" />
          </mxGeometry>
        </mxCell>
        <mxCell id="kP6dBVXoKInHtqesxyQn-63" value="" style="endArrow=none;html=1;rounded=0;entryX=1;entryY=1;entryDx=0;entryDy=0;exitX=0;exitY=0;exitDx=0;exitDy=0;" edge="1" parent="1" source="kP6dBVXoKInHtqesxyQn-59">
          <mxGeometry width="50" height="50" relative="1" as="geometry">
            <mxPoint x="400" y="1190" as="sourcePoint" />
            <mxPoint x="395" y="1010" as="targetPoint" />
          </mxGeometry>
        </mxCell>
        <mxCell id="kP6dBVXoKInHtqesxyQn-65" value="Offering Of" style="shape=rhombus;double=1;perimeter=rhombusPerimeter;whiteSpace=wrap;html=1;align=center;" vertex="1" parent="1">
          <mxGeometry x="285" y="1080" width="120" height="60" as="geometry" />
        </mxCell>
        <mxCell id="kP6dBVXoKInHtqesxyQn-66" value="Class" style="shape=ext;margin=3;double=1;whiteSpace=wrap;html=1;align=center;" vertex="1" parent="1">
          <mxGeometry x="295" y="1220" width="100" height="40" as="geometry" />
        </mxCell>
        <mxCell id="kP6dBVXoKInHtqesxyQn-67" value="TimeBlock" style="ellipse;whiteSpace=wrap;html=1;align=center;fontStyle=4;" vertex="1" parent="1">
          <mxGeometry x="415" y="1300" width="100" height="40" as="geometry" />
        </mxCell>
        <mxCell id="kP6dBVXoKInHtqesxyQn-68" value="Location" style="ellipse;whiteSpace=wrap;html=1;align=center;fontStyle=4;" vertex="1" parent="1">
          <mxGeometry x="305" y="1300" width="100" height="40" as="geometry" />
        </mxCell>
        <mxCell id="kP6dBVXoKInHtqesxyQn-69" value="Semester" style="ellipse;whiteSpace=wrap;html=1;align=center;fontStyle=4;" vertex="1" parent="1">
          <mxGeometry x="200" y="1300" width="100" height="40" as="geometry" />
        </mxCell>
        <mxCell id="kP6dBVXoKInHtqesxyQn-70" value="" style="endArrow=none;html=1;rounded=0;exitX=0.5;exitY=0;exitDx=0;exitDy=0;entryX=0.14;entryY=0.95;entryDx=0;entryDy=0;entryPerimeter=0;" edge="1" parent="1" source="kP6dBVXoKInHtqesxyQn-69" target="kP6dBVXoKInHtqesxyQn-66">
          <mxGeometry width="50" height="50" relative="1" as="geometry">
            <mxPoint x="400" y="1190" as="sourcePoint" />
            <mxPoint x="450" y="1140" as="targetPoint" />
          </mxGeometry>
        </mxCell>
        <mxCell id="kP6dBVXoKInHtqesxyQn-71" value="" style="endArrow=none;html=1;rounded=0;exitX=0.5;exitY=1;exitDx=0;exitDy=0;entryX=0.5;entryY=0;entryDx=0;entryDy=0;" edge="1" parent="1" source="kP6dBVXoKInHtqesxyQn-66" target="kP6dBVXoKInHtqesxyQn-68">
          <mxGeometry width="50" height="50" relative="1" as="geometry">
            <mxPoint x="400" y="1190" as="sourcePoint" />
            <mxPoint x="360" y="1290" as="targetPoint" />
          </mxGeometry>
        </mxCell>
        <mxCell id="kP6dBVXoKInHtqesxyQn-72" value="" style="endArrow=none;html=1;rounded=0;entryX=0.35;entryY=0;entryDx=0;entryDy=0;entryPerimeter=0;exitX=1;exitY=1;exitDx=0;exitDy=0;" edge="1" parent="1" source="kP6dBVXoKInHtqesxyQn-66" target="kP6dBVXoKInHtqesxyQn-67">
          <mxGeometry width="50" height="50" relative="1" as="geometry">
            <mxPoint x="400" y="1190" as="sourcePoint" />
            <mxPoint x="450" y="1140" as="targetPoint" />
          </mxGeometry>
        </mxCell>
        <mxCell id="kP6dBVXoKInHtqesxyQn-73" value="" style="endArrow=none;html=1;rounded=0;exitX=0.5;exitY=0;exitDx=0;exitDy=0;entryX=0.5;entryY=1;entryDx=0;entryDy=0;" edge="1" parent="1" source="kP6dBVXoKInHtqesxyQn-66" target="kP6dBVXoKInHtqesxyQn-65">
          <mxGeometry width="50" height="50" relative="1" as="geometry">
            <mxPoint x="400" y="1190" as="sourcePoint" />
            <mxPoint x="450" y="1140" as="targetPoint" />
          </mxGeometry>
        </mxCell>
        <mxCell id="kP6dBVXoKInHtqesxyQn-74" value="" style="endArrow=none;html=1;rounded=0;exitX=0.58;exitY=-0.075;exitDx=0;exitDy=0;exitPerimeter=0;entryX=0.558;entryY=0.917;entryDx=0;entryDy=0;entryPerimeter=0;" edge="1" parent="1" source="kP6dBVXoKInHtqesxyQn-66" target="kP6dBVXoKInHtqesxyQn-65">
          <mxGeometry width="50" height="50" relative="1" as="geometry">
            <mxPoint x="400" y="1190" as="sourcePoint" />
            <mxPoint x="450" y="1140" as="targetPoint" />
          </mxGeometry>
        </mxCell>
        <mxCell id="kP6dBVXoKInHtqesxyQn-75" value="" style="endArrow=none;html=1;rounded=0;entryX=0.5;entryY=1;entryDx=0;entryDy=0;exitX=0.5;exitY=0;exitDx=0;exitDy=0;" edge="1" parent="1" source="kP6dBVXoKInHtqesxyQn-65">
          <mxGeometry width="50" height="50" relative="1" as="geometry">
            <mxPoint x="400" y="1190" as="sourcePoint" />
            <mxPoint x="345" y="1010" as="targetPoint" />
          </mxGeometry>
        </mxCell>
        <mxCell id="kP6dBVXoKInHtqesxyQn-76" value="M" style="text;html=1;align=center;verticalAlign=middle;resizable=0;points=[];autosize=1;strokeColor=none;fillColor=none;" vertex="1" parent="1">
          <mxGeometry x="350" y="1018" width="30" height="30" as="geometry" />
        </mxCell>
        <mxCell id="kP6dBVXoKInHtqesxyQn-77" value="1" style="text;html=1;align=center;verticalAlign=middle;resizable=0;points=[];autosize=1;strokeColor=none;fillColor=none;" vertex="1" parent="1">
          <mxGeometry x="355" y="1188" width="30" height="30" as="geometry" />
        </mxCell>
        <mxCell id="kP6dBVXoKInHtqesxyQn-78" value="Listing" style="shape=rhombus;double=1;perimeter=rhombusPerimeter;whiteSpace=wrap;html=1;align=center;" vertex="1" parent="1">
          <mxGeometry x="275" y="870" width="120" height="60" as="geometry" />
        </mxCell>
        <mxCell id="kP6dBVXoKInHtqesxyQn-79" value="Courses" style="shape=ext;margin=3;double=1;whiteSpace=wrap;html=1;align=center;" vertex="1" parent="1">
          <mxGeometry x="295" y="978" width="100" height="40" as="geometry" />
        </mxCell>
        <mxCell id="kP6dBVXoKInHtqesxyQn-80" value="Taught By" style="shape=rhombus;perimeter=rhombusPerimeter;whiteSpace=wrap;html=1;align=center;" vertex="1" parent="1">
          <mxGeometry x="580" y="978" width="120" height="60" as="geometry" />
        </mxCell>
        <mxCell id="kP6dBVXoKInHtqesxyQn-81" value="" style="endArrow=none;html=1;rounded=0;entryX=0.75;entryY=1;entryDx=0;entryDy=0;exitX=0.5;exitY=0;exitDx=0;exitDy=0;" edge="1" parent="1" source="kP6dBVXoKInHtqesxyQn-80" target="kP6dBVXoKInHtqesxyQn-13">
          <mxGeometry width="50" height="50" relative="1" as="geometry">
            <mxPoint x="400" y="1190" as="sourcePoint" />
            <mxPoint x="450" y="1140" as="targetPoint" />
          </mxGeometry>
        </mxCell>
        <mxCell id="kP6dBVXoKInHtqesxyQn-82" value="" style="endArrow=none;html=1;rounded=0;entryX=0.5;entryY=1;entryDx=0;entryDy=0;exitX=1;exitY=0;exitDx=0;exitDy=0;" edge="1" parent="1" source="kP6dBVXoKInHtqesxyQn-66" target="kP6dBVXoKInHtqesxyQn-80">
          <mxGeometry width="50" height="50" relative="1" as="geometry">
            <mxPoint x="400" y="1190" as="sourcePoint" />
            <mxPoint x="450" y="1140" as="targetPoint" />
          </mxGeometry>
        </mxCell>
        <mxCell id="kP6dBVXoKInHtqesxyQn-83" value="1" style="text;html=1;align=center;verticalAlign=middle;resizable=0;points=[];autosize=1;strokeColor=none;fillColor=none;" vertex="1" parent="1">
          <mxGeometry x="410" y="1210" width="30" height="30" as="geometry" />
        </mxCell>
        <mxCell id="kP6dBVXoKInHtqesxyQn-84" value="M" style="text;html=1;align=center;verticalAlign=middle;resizable=0;points=[];autosize=1;strokeColor=none;fillColor=none;" vertex="1" parent="1">
          <mxGeometry x="620" y="730" width="30" height="30" as="geometry" />
        </mxCell>
        <mxCell id="kP6dBVXoKInHtqesxyQn-85" value="" style="endArrow=none;html=1;rounded=0;exitX=1.167;exitY=1;exitDx=0;exitDy=0;entryX=0.417;entryY=0.867;entryDx=0;entryDy=0;entryPerimeter=0;exitPerimeter=0;" edge="1" parent="1" source="kP6dBVXoKInHtqesxyQn-77" target="kP6dBVXoKInHtqesxyQn-80">
          <mxGeometry width="50" height="50" relative="1" as="geometry">
            <mxPoint x="400" y="1190" as="sourcePoint" />
            <mxPoint x="450" y="1140" as="targetPoint" />
          </mxGeometry>
        </mxCell>
        <mxCell id="kP6dBVXoKInHtqesxyQn-86" value="Enrolled In" style="shape=rhombus;perimeter=rhombusPerimeter;whiteSpace=wrap;html=1;align=center;" vertex="1" parent="1">
          <mxGeometry x="10" y="1000" width="120" height="60" as="geometry" />
        </mxCell>
        <mxCell id="kP6dBVXoKInHtqesxyQn-87" value="" style="endArrow=none;html=1;rounded=0;entryX=0.25;entryY=1;entryDx=0;entryDy=0;exitX=0.5;exitY=0;exitDx=0;exitDy=0;" edge="1" parent="1" source="kP6dBVXoKInHtqesxyQn-86" target="kP6dBVXoKInHtqesxyQn-12">
          <mxGeometry width="50" height="50" relative="1" as="geometry">
            <mxPoint x="400" y="1190" as="sourcePoint" />
            <mxPoint x="450" y="1140" as="targetPoint" />
          </mxGeometry>
        </mxCell>
        <mxCell id="kP6dBVXoKInHtqesxyQn-88" value="" style="endArrow=none;html=1;rounded=0;exitX=0.5;exitY=1;exitDx=0;exitDy=0;entryX=0;entryY=0;entryDx=0;entryDy=0;" edge="1" parent="1" source="kP6dBVXoKInHtqesxyQn-86" target="kP6dBVXoKInHtqesxyQn-66">
          <mxGeometry width="50" height="50" relative="1" as="geometry">
            <mxPoint x="400" y="1090" as="sourcePoint" />
            <mxPoint x="450" y="1040" as="targetPoint" />
          </mxGeometry>
        </mxCell>
        <mxCell id="kP6dBVXoKInHtqesxyQn-89" value="M" style="text;html=1;align=center;verticalAlign=middle;resizable=0;points=[];autosize=1;strokeColor=none;fillColor=none;" vertex="1" parent="1">
          <mxGeometry x="70" y="740" width="30" height="30" as="geometry" />
        </mxCell>
        <mxCell id="kP6dBVXoKInHtqesxyQn-90" value="M" style="text;html=1;align=center;verticalAlign=middle;resizable=0;points=[];autosize=1;strokeColor=none;fillColor=none;" vertex="1" parent="1">
          <mxGeometry x="285" y="1188" width="30" height="30" as="geometry" />
        </mxCell>
        <mxCell id="kP6dBVXoKInHtqesxyQn-93" value="Assignment" style="shape=ext;margin=3;double=1;whiteSpace=wrap;html=1;align=center;" vertex="1" parent="1">
          <mxGeometry x="-380" y="1110" width="100" height="40" as="geometry" />
        </mxCell>
        <mxCell id="kP6dBVXoKInHtqesxyQn-94" value="Assignment Category" style="whiteSpace=wrap;html=1;align=center;" vertex="1" parent="1">
          <mxGeometry x="-100" y="1228" width="100" height="40" as="geometry" />
        </mxCell>
        <mxCell id="kP6dBVXoKInHtqesxyQn-95" value="Category" style="shape=rhombus;perimeter=rhombusPerimeter;whiteSpace=wrap;html=1;align=center;" vertex="1" parent="1">
          <mxGeometry x="55" y="1218" width="120" height="60" as="geometry" />
        </mxCell>
        <mxCell id="kP6dBVXoKInHtqesxyQn-96" value="Type Of" style="shape=rhombus;double=1;perimeter=rhombusPerimeter;whiteSpace=wrap;html=1;align=center;" vertex="1" parent="1">
          <mxGeometry x="-260" y="1160" width="120" height="60" as="geometry" />
        </mxCell>
        <mxCell id="kP6dBVXoKInHtqesxyQn-97" value="Name" style="ellipse;whiteSpace=wrap;html=1;align=center;fontStyle=4;" vertex="1" parent="1">
          <mxGeometry x="-475" y="1170" width="100" height="40" as="geometry" />
        </mxCell>
        <mxCell id="kP6dBVXoKInHtqesxyQn-98" value="MaxValue" style="ellipse;whiteSpace=wrap;html=1;align=center;" vertex="1" parent="1">
          <mxGeometry x="-510" y="1110" width="100" height="40" as="geometry" />
        </mxCell>
        <mxCell id="kP6dBVXoKInHtqesxyQn-99" value="Instructions" style="ellipse;whiteSpace=wrap;html=1;align=center;" vertex="1" parent="1">
          <mxGeometry x="-510" y="1048" width="100" height="40" as="geometry" />
        </mxCell>
        <mxCell id="kP6dBVXoKInHtqesxyQn-100" value="DueDate" style="ellipse;whiteSpace=wrap;html=1;align=center;" vertex="1" parent="1">
          <mxGeometry x="-475" y="988" width="100" height="40" as="geometry" />
        </mxCell>
        <mxCell id="kP6dBVXoKInHtqesxyQn-101" value="" style="endArrow=none;html=1;rounded=0;entryX=0;entryY=1;entryDx=0;entryDy=0;exitX=0.76;exitY=0;exitDx=0;exitDy=0;exitPerimeter=0;" edge="1" parent="1" source="kP6dBVXoKInHtqesxyQn-97" target="kP6dBVXoKInHtqesxyQn-93">
          <mxGeometry width="50" height="50" relative="1" as="geometry">
            <mxPoint x="400" y="1190" as="sourcePoint" />
            <mxPoint x="450" y="1140" as="targetPoint" />
          </mxGeometry>
        </mxCell>
        <mxCell id="kP6dBVXoKInHtqesxyQn-102" value="" style="endArrow=none;html=1;rounded=0;entryX=1;entryY=0.5;entryDx=0;entryDy=0;" edge="1" parent="1" target="kP6dBVXoKInHtqesxyQn-98">
          <mxGeometry width="50" height="50" relative="1" as="geometry">
            <mxPoint x="-380" y="1130" as="sourcePoint" />
            <mxPoint x="450" y="1140" as="targetPoint" />
          </mxGeometry>
        </mxCell>
        <mxCell id="kP6dBVXoKInHtqesxyQn-103" value="" style="endArrow=none;html=1;rounded=0;entryX=1;entryY=1;entryDx=0;entryDy=0;exitX=0;exitY=0;exitDx=0;exitDy=0;" edge="1" parent="1" source="kP6dBVXoKInHtqesxyQn-93" target="kP6dBVXoKInHtqesxyQn-99">
          <mxGeometry width="50" height="50" relative="1" as="geometry">
            <mxPoint x="400" y="1190" as="sourcePoint" />
            <mxPoint x="450" y="1140" as="targetPoint" />
          </mxGeometry>
        </mxCell>
        <mxCell id="kP6dBVXoKInHtqesxyQn-104" value="" style="endArrow=none;html=1;rounded=0;entryX=0.75;entryY=0.9;entryDx=0;entryDy=0;entryPerimeter=0;exitX=0.18;exitY=-0.1;exitDx=0;exitDy=0;exitPerimeter=0;" edge="1" parent="1" source="kP6dBVXoKInHtqesxyQn-93" target="kP6dBVXoKInHtqesxyQn-100">
          <mxGeometry width="50" height="50" relative="1" as="geometry">
            <mxPoint x="400" y="1190" as="sourcePoint" />
            <mxPoint x="450" y="1140" as="targetPoint" />
          </mxGeometry>
        </mxCell>
        <mxCell id="kP6dBVXoKInHtqesxyQn-105" value="" style="endArrow=none;html=1;rounded=0;entryX=1;entryY=0.75;entryDx=0;entryDy=0;exitX=0.35;exitY=0.117;exitDx=0;exitDy=0;exitPerimeter=0;" edge="1" parent="1" source="kP6dBVXoKInHtqesxyQn-96" target="kP6dBVXoKInHtqesxyQn-93">
          <mxGeometry width="50" height="50" relative="1" as="geometry">
            <mxPoint x="400" y="1190" as="sourcePoint" />
            <mxPoint x="450" y="1140" as="targetPoint" />
          </mxGeometry>
        </mxCell>
        <mxCell id="kP6dBVXoKInHtqesxyQn-106" value="" style="endArrow=none;html=1;rounded=0;entryX=1;entryY=1;entryDx=0;entryDy=0;exitX=0;exitY=0;exitDx=0;exitDy=0;" edge="1" parent="1" source="kP6dBVXoKInHtqesxyQn-96" target="kP6dBVXoKInHtqesxyQn-93">
          <mxGeometry width="50" height="50" relative="1" as="geometry">
            <mxPoint x="400" y="1190" as="sourcePoint" />
            <mxPoint x="450" y="1140" as="targetPoint" />
          </mxGeometry>
        </mxCell>
        <mxCell id="kP6dBVXoKInHtqesxyQn-107" value="" style="endArrow=none;html=1;rounded=0;entryX=1;entryY=1;entryDx=0;entryDy=0;exitX=0;exitY=0.5;exitDx=0;exitDy=0;" edge="1" parent="1" source="kP6dBVXoKInHtqesxyQn-94" target="kP6dBVXoKInHtqesxyQn-96">
          <mxGeometry width="50" height="50" relative="1" as="geometry">
            <mxPoint x="400" y="1190" as="sourcePoint" />
            <mxPoint x="450" y="1140" as="targetPoint" />
          </mxGeometry>
        </mxCell>
        <mxCell id="kP6dBVXoKInHtqesxyQn-108" value="M" style="text;html=1;align=center;verticalAlign=middle;resizable=0;points=[];autosize=1;strokeColor=none;fillColor=none;" vertex="1" parent="1">
          <mxGeometry x="-125" y="1198" width="30" height="30" as="geometry" />
        </mxCell>
        <mxCell id="kP6dBVXoKInHtqesxyQn-109" value="1" style="text;html=1;align=center;verticalAlign=middle;resizable=0;points=[];autosize=1;strokeColor=none;fillColor=none;" vertex="1" parent="1">
          <mxGeometry x="-275" y="1118" width="30" height="30" as="geometry" />
        </mxCell>
        <mxCell id="kP6dBVXoKInHtqesxyQn-110" value="" style="endArrow=none;html=1;rounded=0;entryX=1;entryY=0.25;entryDx=0;entryDy=0;exitX=0;exitY=0;exitDx=0;exitDy=0;" edge="1" parent="1" source="kP6dBVXoKInHtqesxyQn-95" target="kP6dBVXoKInHtqesxyQn-94">
          <mxGeometry width="50" height="50" relative="1" as="geometry">
            <mxPoint x="80" y="1230" as="sourcePoint" />
            <mxPoint x="450" y="1140" as="targetPoint" />
          </mxGeometry>
        </mxCell>
        <mxCell id="kP6dBVXoKInHtqesxyQn-111" value="" style="endArrow=none;html=1;rounded=0;entryX=1;entryY=0.5;entryDx=0;entryDy=0;exitX=0;exitY=0.5;exitDx=0;exitDy=0;" edge="1" parent="1" source="kP6dBVXoKInHtqesxyQn-95" target="kP6dBVXoKInHtqesxyQn-94">
          <mxGeometry width="50" height="50" relative="1" as="geometry">
            <mxPoint x="400" y="1190" as="sourcePoint" />
            <mxPoint x="450" y="1140" as="targetPoint" />
          </mxGeometry>
        </mxCell>
        <mxCell id="kP6dBVXoKInHtqesxyQn-112" value="" style="endArrow=none;html=1;rounded=0;entryX=1;entryY=0.5;entryDx=0;entryDy=0;exitX=0;exitY=0.5;exitDx=0;exitDy=0;" edge="1" parent="1" source="kP6dBVXoKInHtqesxyQn-66" target="kP6dBVXoKInHtqesxyQn-95">
          <mxGeometry width="50" height="50" relative="1" as="geometry">
            <mxPoint x="400" y="1190" as="sourcePoint" />
            <mxPoint x="450" y="1140" as="targetPoint" />
          </mxGeometry>
        </mxCell>
        <mxCell id="kP6dBVXoKInHtqesxyQn-113" value="M" style="text;html=1;align=center;verticalAlign=middle;resizable=0;points=[];autosize=1;strokeColor=none;fillColor=none;" vertex="1" parent="1">
          <mxGeometry x="255" y="1238" width="30" height="30" as="geometry" />
        </mxCell>
        <mxCell id="kP6dBVXoKInHtqesxyQn-114" value="1" style="text;html=1;align=center;verticalAlign=middle;resizable=0;points=[];autosize=1;strokeColor=none;fillColor=none;" vertex="1" parent="1">
          <mxGeometry x="-5" y="1198" width="30" height="30" as="geometry" />
        </mxCell>
        <mxCell id="kP6dBVXoKInHtqesxyQn-115" value="Name" style="ellipse;whiteSpace=wrap;html=1;align=center;fontStyle=4;" vertex="1" parent="1">
          <mxGeometry x="-160" y="1300" width="100" height="40" as="geometry" />
        </mxCell>
        <mxCell id="kP6dBVXoKInHtqesxyQn-116" value="GradeWeight" style="ellipse;whiteSpace=wrap;html=1;align=center;" vertex="1" parent="1">
          <mxGeometry x="-50" y="1300" width="100" height="40" as="geometry" />
        </mxCell>
        <mxCell id="kP6dBVXoKInHtqesxyQn-118" value="" style="endArrow=none;html=1;rounded=0;entryX=0.15;entryY=0.975;entryDx=0;entryDy=0;entryPerimeter=0;exitX=0.57;exitY=0.025;exitDx=0;exitDy=0;exitPerimeter=0;" edge="1" parent="1" source="kP6dBVXoKInHtqesxyQn-115" target="kP6dBVXoKInHtqesxyQn-94">
          <mxGeometry width="50" height="50" relative="1" as="geometry">
            <mxPoint x="400" y="1190" as="sourcePoint" />
            <mxPoint x="450" y="1140" as="targetPoint" />
          </mxGeometry>
        </mxCell>
        <mxCell id="kP6dBVXoKInHtqesxyQn-119" value="" style="endArrow=none;html=1;rounded=0;entryX=0.75;entryY=1;entryDx=0;entryDy=0;exitX=0.5;exitY=0;exitDx=0;exitDy=0;" edge="1" parent="1" source="kP6dBVXoKInHtqesxyQn-116" target="kP6dBVXoKInHtqesxyQn-94">
          <mxGeometry width="50" height="50" relative="1" as="geometry">
            <mxPoint x="400" y="1190" as="sourcePoint" />
            <mxPoint x="450" y="1140" as="targetPoint" />
          </mxGeometry>
        </mxCell>
        <mxCell id="kP6dBVXoKInHtqesxyQn-121" value="" style="endArrow=none;html=1;rounded=0;entryX=0;entryY=0.5;entryDx=0;entryDy=0;" edge="1" parent="1" target="kP6dBVXoKInHtqesxyQn-12">
          <mxGeometry width="50" height="50" relative="1" as="geometry">
            <mxPoint x="-97.14285714285734" y="811.4285714285713" as="sourcePoint" />
            <mxPoint x="450" y="940" as="targetPoint" />
          </mxGeometry>
        </mxCell>
        <mxCell id="kP6dBVXoKInHtqesxyQn-122" value="M" style="text;html=1;align=center;verticalAlign=middle;resizable=0;points=[];autosize=1;strokeColor=none;fillColor=none;" vertex="1" parent="1">
          <mxGeometry x="-355" y="1068" width="30" height="30" as="geometry" />
        </mxCell>
        <mxCell id="kP6dBVXoKInHtqesxyQn-123" value="M" style="text;html=1;align=center;verticalAlign=middle;resizable=0;points=[];autosize=1;strokeColor=none;fillColor=none;" vertex="1" parent="1">
          <mxGeometry x="-5" y="678" width="30" height="30" as="geometry" />
        </mxCell>
        <mxCell id="kP6dBVXoKInHtqesxyQn-127" value="Submission" style="shape=ext;margin=3;double=1;whiteSpace=wrap;html=1;align=center;" vertex="1" parent="1">
          <mxGeometry x="-275" y="920" width="100" height="40" as="geometry" />
        </mxCell>
        <mxCell id="kP6dBVXoKInHtqesxyQn-128" value="Submit" style="shape=rhombus;double=1;perimeter=rhombusPerimeter;whiteSpace=wrap;html=1;align=center;" vertex="1" parent="1">
          <mxGeometry x="-325" y="1020" width="120" height="60" as="geometry" />
        </mxCell>
        <mxCell id="kP6dBVXoKInHtqesxyQn-130" value="Turn In" style="shape=rhombus;double=1;perimeter=rhombusPerimeter;whiteSpace=wrap;html=1;align=center;" vertex="1" parent="1">
          <mxGeometry x="-180" y="800" width="120" height="60" as="geometry" />
        </mxCell>
        <mxCell id="kP6dBVXoKInHtqesxyQn-131" value="" style="endArrow=none;html=1;rounded=0;entryX=0;entryY=1;entryDx=0;entryDy=0;exitX=0.5;exitY=0;exitDx=0;exitDy=0;" edge="1" parent="1" source="kP6dBVXoKInHtqesxyQn-127" target="kP6dBVXoKInHtqesxyQn-130">
          <mxGeometry width="50" height="50" relative="1" as="geometry">
            <mxPoint x="400" y="990" as="sourcePoint" />
            <mxPoint x="450" y="940" as="targetPoint" />
          </mxGeometry>
        </mxCell>
        <mxCell id="kP6dBVXoKInHtqesxyQn-132" value="" style="endArrow=none;html=1;rounded=0;entryX=0.43;entryY=1;entryDx=0;entryDy=0;entryPerimeter=0;exitX=0.5;exitY=0;exitDx=0;exitDy=0;" edge="1" parent="1" source="kP6dBVXoKInHtqesxyQn-128" target="kP6dBVXoKInHtqesxyQn-127">
          <mxGeometry width="50" height="50" relative="1" as="geometry">
            <mxPoint x="400" y="990" as="sourcePoint" />
            <mxPoint x="450" y="940" as="targetPoint" />
          </mxGeometry>
        </mxCell>
        <mxCell id="kP6dBVXoKInHtqesxyQn-133" value="" style="endArrow=none;html=1;rounded=0;entryX=0.5;entryY=0;entryDx=0;entryDy=0;exitX=0;exitY=1;exitDx=0;exitDy=0;" edge="1" parent="1" source="kP6dBVXoKInHtqesxyQn-128" target="kP6dBVXoKInHtqesxyQn-93">
          <mxGeometry width="50" height="50" relative="1" as="geometry">
            <mxPoint x="400" y="990" as="sourcePoint" />
            <mxPoint x="450" y="940" as="targetPoint" />
          </mxGeometry>
        </mxCell>
        <mxCell id="kP6dBVXoKInHtqesxyQn-134" value="TurnInTime" style="ellipse;whiteSpace=wrap;html=1;align=center;fontStyle=4;" vertex="1" parent="1">
          <mxGeometry x="-140" y="970" width="100" height="40" as="geometry" />
        </mxCell>
        <mxCell id="kP6dBVXoKInHtqesxyQn-135" value="Solution" style="ellipse;whiteSpace=wrap;html=1;align=center;" vertex="1" parent="1">
          <mxGeometry x="-125" y="910" width="100" height="40" as="geometry" />
        </mxCell>
        <mxCell id="kP6dBVXoKInHtqesxyQn-136" value="&lt;span style=&quot;border-bottom: 1px dotted&quot;&gt;Score&lt;/span&gt;" style="ellipse;whiteSpace=wrap;html=1;align=center;" vertex="1" parent="1">
          <mxGeometry x="-120" y="860" width="100" height="40" as="geometry" />
        </mxCell>
        <mxCell id="kP6dBVXoKInHtqesxyQn-137" value="" style="endArrow=none;html=1;rounded=0;entryX=0;entryY=0.5;entryDx=0;entryDy=0;exitX=1;exitY=0;exitDx=0;exitDy=0;" edge="1" parent="1" source="kP6dBVXoKInHtqesxyQn-127" target="kP6dBVXoKInHtqesxyQn-136">
          <mxGeometry width="50" height="50" relative="1" as="geometry">
            <mxPoint x="400" y="990" as="sourcePoint" />
            <mxPoint x="450" y="940" as="targetPoint" />
          </mxGeometry>
        </mxCell>
        <mxCell id="kP6dBVXoKInHtqesxyQn-138" value="" style="endArrow=none;html=1;rounded=0;entryX=0;entryY=0.5;entryDx=0;entryDy=0;exitX=1;exitY=0.5;exitDx=0;exitDy=0;" edge="1" parent="1" source="kP6dBVXoKInHtqesxyQn-127" target="kP6dBVXoKInHtqesxyQn-135">
          <mxGeometry width="50" height="50" relative="1" as="geometry">
            <mxPoint x="400" y="990" as="sourcePoint" />
            <mxPoint x="450" y="940" as="targetPoint" />
          </mxGeometry>
        </mxCell>
        <mxCell id="kP6dBVXoKInHtqesxyQn-139" value="" style="endArrow=none;html=1;rounded=0;entryX=1;entryY=1;entryDx=0;entryDy=0;exitX=0.05;exitY=0.25;exitDx=0;exitDy=0;exitPerimeter=0;" edge="1" parent="1" source="kP6dBVXoKInHtqesxyQn-134" target="kP6dBVXoKInHtqesxyQn-127">
          <mxGeometry width="50" height="50" relative="1" as="geometry">
            <mxPoint x="400" y="990" as="sourcePoint" />
            <mxPoint x="450" y="940" as="targetPoint" />
          </mxGeometry>
        </mxCell>
        <mxCell id="kP6dBVXoKInHtqesxyQn-141" value="" style="endArrow=none;html=1;rounded=0;entryX=0.25;entryY=1;entryDx=0;entryDy=0;exitX=0.375;exitY=0.167;exitDx=0;exitDy=0;exitPerimeter=0;" edge="1" parent="1" source="kP6dBVXoKInHtqesxyQn-128" target="kP6dBVXoKInHtqesxyQn-127">
          <mxGeometry width="50" height="50" relative="1" as="geometry">
            <mxPoint x="400" y="990" as="sourcePoint" />
            <mxPoint x="450" y="940" as="targetPoint" />
          </mxGeometry>
        </mxCell>
        <mxCell id="kP6dBVXoKInHtqesxyQn-142" value="1" style="text;html=1;align=center;verticalAlign=middle;resizable=0;points=[];autosize=1;strokeColor=none;fillColor=none;" vertex="1" parent="1">
          <mxGeometry x="-255" y="888" width="30" height="30" as="geometry" />
        </mxCell>
        <mxCell id="kP6dBVXoKInHtqesxyQn-143" value="1" style="text;html=1;align=center;verticalAlign=middle;resizable=0;points=[];autosize=1;strokeColor=none;fillColor=none;" vertex="1" parent="1">
          <mxGeometry x="-295" y="958" width="30" height="30" as="geometry" />
        </mxCell>
      </root>
    </mxGraphModel>
  </diagram>
</mxfile>
